<svg id="svg" version="1.1" xmlns="http://www.w3.org/2000/svg" xmlns:xlink="http://www.w3.org/1999/xlink" width="400" height="378.0891719745223" viewBox="0, 0, 400,378.0891719745223"><g id="svgg"><path id="path0" d="M2.271 0.378 C 2.271 0.589,3.280 0.757,4.541 0.757 C 5.803 0.757,6.812 0.589,6.812 0.378 C 6.812 0.168,5.803 0.000,4.541 0.000 C 3.280 0.000,2.271 0.168,2.271 0.378 M10.596 0.378 C 10.596 0.589,11.605 0.757,12.867 0.757 C 14.128 0.757,15.137 0.589,15.137 0.378 C 15.137 0.168,14.128 0.000,12.867 0.000 C 11.605 0.000,10.596 0.168,10.596 0.378 M18.543 0.378 C 18.543 0.589,19.552 0.757,20.814 0.757 C 22.075 0.757,23.084 0.589,23.084 0.378 C 23.084 0.168,22.075 0.000,20.814 0.000 C 19.552 0.000,18.543 0.168,18.543 0.378 M26.868 0.378 C 26.868 0.589,27.878 0.757,29.139 0.757 C 30.401 0.757,31.410 0.589,31.410 0.378 C 31.410 0.168,30.401 0.000,29.139 0.000 C 27.878 0.000,26.868 0.168,26.868 0.378 M34.816 0.378 C 34.816 0.589,35.825 0.757,37.086 0.757 C 38.348 0.757,39.357 0.589,39.357 0.378 C 39.357 0.168,38.348 0.000,37.086 0.000 C 35.825 0.000,34.816 0.168,34.816 0.378 M43.141 0.378 C 43.141 0.589,44.150 0.757,45.412 0.757 C 46.673 0.757,47.682 0.589,47.682 0.378 C 47.682 0.168,46.673 0.000,45.412 0.000 C 44.150 0.000,43.141 0.168,43.141 0.378 M51.088 0.378 C 51.088 0.589,52.097 0.757,53.359 0.757 C 54.620 0.757,55.629 0.589,55.629 0.378 C 55.629 0.168,54.620 0.000,53.359 0.000 C 52.097 0.000,51.088 0.168,51.088 0.378 M59.413 0.378 C 59.413 0.589,60.423 0.757,61.684 0.757 C 62.945 0.757,63.955 0.589,63.955 0.378 C 63.955 0.168,62.945 0.000,61.684 0.000 C 60.423 0.000,59.413 0.168,59.413 0.378 M67.360 0.378 C 67.360 0.592,68.433 0.757,69.820 0.757 C 71.208 0.757,72.280 0.592,72.280 0.378 C 72.280 0.165,71.208 0.000,69.820 0.000 C 68.433 0.000,67.360 0.165,67.360 0.378 M75.686 0.378 C 75.686 0.589,76.695 0.757,77.956 0.757 C 79.218 0.757,80.227 0.589,80.227 0.378 C 80.227 0.168,79.218 0.000,77.956 0.000 C 76.695 0.000,75.686 0.168,75.686 0.378 M84.011 0.378 C 84.011 0.589,85.020 0.757,86.282 0.757 C 87.543 0.757,88.553 0.589,88.553 0.378 C 88.553 0.168,87.543 0.000,86.282 0.000 C 85.020 0.000,84.011 0.168,84.011 0.378 M91.958 0.378 C 91.958 0.589,92.968 0.757,94.229 0.757 C 95.490 0.757,96.500 0.589,96.500 0.378 C 96.500 0.168,95.490 0.000,94.229 0.000 C 92.968 0.000,91.958 0.168,91.958 0.378 M100.284 0.378 C 100.284 0.589,101.293 0.757,102.554 0.757 C 103.816 0.757,104.825 0.589,104.825 0.378 C 104.825 0.168,103.816 0.000,102.554 0.000 C 101.293 0.000,100.284 0.168,100.284 0.378 M108.231 0.378 C 108.231 0.589,109.240 0.757,110.501 0.757 C 111.763 0.757,112.772 0.589,112.772 0.378 C 112.772 0.168,111.763 0.000,110.501 0.000 C 109.240 0.000,108.231 0.168,108.231 0.378 M116.556 0.378 C 116.556 0.589,117.565 0.757,118.827 0.757 C 120.088 0.757,121.097 0.589,121.097 0.378 C 121.097 0.168,120.088 0.000,118.827 0.000 C 117.565 0.000,116.556 0.168,116.556 0.378 M124.503 0.378 C 124.503 0.589,125.512 0.757,126.774 0.757 C 128.035 0.757,129.044 0.589,129.044 0.378 C 129.044 0.168,128.035 0.000,126.774 0.000 C 125.512 0.000,124.503 0.168,124.503 0.378 M132.829 0.378 C 132.829 0.589,133.838 0.757,135.099 0.757 C 136.361 0.757,137.370 0.589,137.370 0.378 C 137.370 0.168,136.361 0.000,135.099 0.000 C 133.838 0.000,132.829 0.168,132.829 0.378 M140.776 0.378 C 140.776 0.589,141.785 0.757,143.046 0.757 C 144.308 0.757,145.317 0.589,145.317 0.378 C 145.317 0.168,144.308 0.000,143.046 0.000 C 141.785 0.000,140.776 0.168,140.776 0.378 M149.101 0.378 C 149.101 0.589,150.110 0.757,151.372 0.757 C 152.633 0.757,153.642 0.589,153.642 0.378 C 153.642 0.168,152.633 0.000,151.372 0.000 C 150.110 0.000,149.101 0.168,149.101 0.378 M157.048 0.378 C 157.048 0.592,158.120 0.757,159.508 0.757 C 160.896 0.757,161.968 0.592,161.968 0.378 C 161.968 0.165,160.896 0.000,159.508 0.000 C 158.120 0.000,157.048 0.165,157.048 0.378 M165.374 0.378 C 165.374 0.589,166.383 0.757,167.644 0.757 C 168.906 0.757,169.915 0.589,169.915 0.378 C 169.915 0.168,168.906 0.000,167.644 0.000 C 166.383 0.000,165.374 0.168,165.374 0.378 M173.321 0.378 C 173.321 0.592,174.393 0.757,175.781 0.757 C 177.168 0.757,178.240 0.592,178.240 0.378 C 178.240 0.165,177.168 0.000,175.781 0.000 C 174.393 0.000,173.321 0.165,173.321 0.378 M181.646 0.378 C 181.646 0.589,182.655 0.757,183.917 0.757 C 185.178 0.757,186.187 0.589,186.187 0.378 C 186.187 0.168,185.178 0.000,183.917 0.000 C 182.655 0.000,181.646 0.168,181.646 0.378 M189.972 0.378 C 189.972 0.589,190.981 0.757,192.242 0.757 C 193.504 0.757,194.513 0.589,194.513 0.378 C 194.513 0.168,193.504 0.000,192.242 0.000 C 190.981 0.000,189.972 0.168,189.972 0.378 M197.919 0.378 C 197.919 0.589,198.928 0.757,200.189 0.757 C 201.451 0.757,202.460 0.589,202.460 0.378 C 202.460 0.168,201.451 0.000,200.189 0.000 C 198.928 0.000,197.919 0.168,197.919 0.378 M206.244 0.378 C 206.244 0.589,207.253 0.757,208.515 0.757 C 209.776 0.757,210.785 0.589,210.785 0.378 C 210.785 0.168,209.776 0.000,208.515 0.000 C 207.253 0.000,206.244 0.168,206.244 0.378 M214.191 0.378 C 214.191 0.589,215.200 0.757,216.462 0.757 C 217.723 0.757,218.732 0.589,218.732 0.378 C 218.732 0.168,217.723 0.000,216.462 0.000 C 215.200 0.000,214.191 0.168,214.191 0.378 M222.517 0.378 C 222.517 0.589,223.526 0.757,224.787 0.757 C 226.049 0.757,227.058 0.589,227.058 0.378 C 227.058 0.168,226.049 0.000,224.787 0.000 C 223.526 0.000,222.517 0.168,222.517 0.378 M230.464 0.378 C 230.464 0.589,231.473 0.757,232.734 0.757 C 233.996 0.757,235.005 0.589,235.005 0.378 C 235.005 0.168,233.996 0.000,232.734 0.000 C 231.473 0.000,230.464 0.168,230.464 0.378 M238.789 0.378 C 238.789 0.589,239.798 0.757,241.060 0.757 C 242.321 0.757,243.330 0.589,243.330 0.378 C 243.330 0.168,242.321 0.000,241.060 0.000 C 239.798 0.000,238.789 0.168,238.789 0.378 M246.736 0.378 C 246.736 0.589,247.745 0.757,249.007 0.757 C 250.268 0.757,251.277 0.589,251.277 0.378 C 251.277 0.168,250.268 0.000,249.007 0.000 C 247.745 0.000,246.736 0.168,246.736 0.378 M255.061 0.378 C 255.061 0.589,256.071 0.757,257.332 0.757 C 258.594 0.757,259.603 0.589,259.603 0.378 C 259.603 0.168,258.594 0.000,257.332 0.000 C 256.071 0.000,255.061 0.168,255.061 0.378 M263.198 0.378 C 263.326 0.587,264.443 0.757,265.680 0.757 C 266.926 0.757,267.928 0.588,267.928 0.378 C 267.928 0.165,266.848 0.000,265.446 0.000 C 263.888 0.000,263.051 0.141,263.198 0.378 M271.334 0.378 C 271.334 0.589,272.343 0.757,273.605 0.757 C 274.866 0.757,275.875 0.589,275.875 0.378 C 275.875 0.168,274.866 0.000,273.605 0.000 C 272.343 0.000,271.334 0.168,271.334 0.378 M279.659 0.378 C 279.659 0.589,280.669 0.757,281.930 0.757 C 283.191 0.757,284.201 0.589,284.201 0.378 C 284.201 0.168,283.191 0.000,281.930 0.000 C 280.669 0.000,279.659 0.168,279.659 0.378 M287.606 0.378 C 287.606 0.589,288.616 0.757,289.877 0.757 C 291.138 0.757,292.148 0.589,292.148 0.378 C 292.148 0.168,291.138 0.000,289.877 0.000 C 288.616 0.000,287.606 0.168,287.606 0.378 M295.932 0.378 C 295.932 0.589,296.941 0.757,298.202 0.757 C 299.464 0.757,300.473 0.589,300.473 0.378 C 300.473 0.168,299.464 0.000,298.202 0.000 C 296.941 0.000,295.932 0.168,295.932 0.378 M303.879 0.378 C 303.879 0.589,304.888 0.757,306.149 0.757 C 307.411 0.757,308.420 0.589,308.420 0.378 C 308.420 0.168,307.411 0.000,306.149 0.000 C 304.888 0.000,303.879 0.168,303.879 0.378 M312.204 0.378 C 312.204 0.589,313.213 0.757,314.475 0.757 C 315.736 0.757,316.746 0.589,316.746 0.378 C 316.746 0.168,315.736 0.000,314.475 0.000 C 313.213 0.000,312.204 0.168,312.204 0.378 M320.151 0.378 C 320.151 0.589,321.161 0.757,322.422 0.757 C 323.683 0.757,324.693 0.589,324.693 0.378 C 324.693 0.168,323.683 0.000,322.422 0.000 C 321.161 0.000,320.151 0.168,320.151 0.378 M328.477 0.378 C 328.477 0.589,329.486 0.757,330.747 0.757 C 332.009 0.757,333.018 0.589,333.018 0.378 C 333.018 0.168,332.009 0.000,330.747 0.000 C 329.486 0.000,328.477 0.168,328.477 0.378 M336.424 0.378 C 336.424 0.589,337.433 0.757,338.694 0.757 C 339.956 0.757,340.965 0.589,340.965 0.378 C 340.965 0.168,339.956 0.000,338.694 0.000 C 337.433 0.000,336.424 0.168,336.424 0.378 M344.749 0.378 C 344.749 0.589,345.758 0.757,347.020 0.757 C 348.281 0.757,349.290 0.589,349.290 0.378 C 349.290 0.168,348.281 0.000,347.020 0.000 C 345.758 0.000,344.749 0.168,344.749 0.378 M352.696 0.378 C 352.696 0.592,353.769 0.757,355.156 0.757 C 356.544 0.757,357.616 0.592,357.616 0.378 C 357.616 0.165,356.544 0.000,355.156 0.000 C 353.769 0.000,352.696 0.165,352.696 0.378 M361.022 0.378 C 361.022 0.589,362.031 0.757,363.292 0.757 C 364.554 0.757,365.563 0.589,365.563 0.378 C 365.563 0.168,364.554 0.000,363.292 0.000 C 362.031 0.000,361.022 0.168,361.022 0.378 M369.347 0.378 C 369.347 0.589,370.356 0.757,371.618 0.757 C 372.879 0.757,373.888 0.589,373.888 0.378 C 373.888 0.168,372.879 0.000,371.618 0.000 C 370.356 0.000,369.347 0.168,369.347 0.378 M377.294 0.378 C 377.294 0.589,378.303 0.757,379.565 0.757 C 380.826 0.757,381.835 0.589,381.835 0.378 C 381.835 0.168,380.826 0.000,379.565 0.000 C 378.303 0.000,377.294 0.168,377.294 0.378 M385.620 0.378 C 385.620 0.589,386.629 0.757,387.890 0.757 C 389.152 0.757,390.161 0.589,390.161 0.378 C 390.161 0.168,389.152 0.000,387.890 0.000 C 386.629 0.000,385.620 0.168,385.620 0.378 M393.567 0.378 C 393.567 0.589,394.576 0.757,395.837 0.757 C 397.099 0.757,398.108 0.589,398.108 0.378 C 398.108 0.168,397.099 0.000,395.837 0.000 C 394.576 0.000,393.567 0.168,393.567 0.378 M0.000 3.406 C 0.000 4.667,0.168 5.676,0.378 5.676 C 0.589 5.676,0.757 4.667,0.757 3.406 C 0.757 2.144,0.589 1.135,0.378 1.135 C 0.168 1.135,0.000 2.144,0.000 3.406 M399.243 3.406 C 399.243 4.667,399.411 5.676,399.622 5.676 C 399.832 5.676,400.000 4.667,400.000 3.406 C 400.000 2.144,399.832 1.135,399.622 1.135 C 399.411 1.135,399.243 2.144,399.243 3.406 M0.000 11.731 C 0.000 12.993,0.168 14.002,0.378 14.002 C 0.589 14.002,0.757 12.993,0.757 11.731 C 0.757 10.470,0.589 9.461,0.378 9.461 C 0.168 9.461,0.000 10.470,0.000 11.731 M399.243 11.731 C 399.243 12.993,399.411 14.002,399.622 14.002 C 399.832 14.002,400.000 12.993,400.000 11.731 C 400.000 10.470,399.832 9.461,399.622 9.461 C 399.411 9.461,399.243 10.470,399.243 11.731 M0.000 19.845 C 0.000 21.248,0.165 22.327,0.378 22.327 C 0.588 22.327,0.757 21.326,0.757 20.079 C 0.757 18.843,0.587 17.726,0.378 17.597 C 0.141 17.450,0.000 18.287,0.000 19.845 M399.495 17.660 C 399.090 18.066,399.205 22.327,399.622 22.327 C 399.835 22.327,400.000 21.255,400.000 19.868 C 400.000 17.390,399.956 17.199,399.495 17.660 M0.000 28.004 C 0.000 29.265,0.168 30.274,0.378 30.274 C 0.589 30.274,0.757 29.265,0.757 28.004 C 0.757 26.742,0.589 25.733,0.378 25.733 C 0.168 25.733,0.000 26.742,0.000 28.004 M399.243 28.004 C 399.243 29.265,399.411 30.274,399.622 30.274 C 399.832 30.274,400.000 29.265,400.000 28.004 C 400.000 26.742,399.832 25.733,399.622 25.733 C 399.411 25.733,399.243 26.742,399.243 28.004 M18.997 33.756 C 18.404 34.350,18.328 355.345,18.921 355.345 C 19.173 355.345,19.300 301.545,19.300 194.702 L 19.300 34.059 66.449 34.059 C 113.135 34.059,113.608 34.066,114.568 34.821 C 115.101 35.240,115.620 35.500,115.722 35.398 C 116.015 35.104,115.005 34.059,114.429 34.059 C 114.142 34.059,113.907 33.888,113.907 33.680 C 113.907 33.089,19.589 33.164,18.997 33.756 M0.000 36.329 C 0.000 37.591,0.168 38.600,0.378 38.600 C 0.589 38.600,0.757 37.591,0.757 36.329 C 0.757 35.068,0.589 34.059,0.378 34.059 C 0.168 34.059,0.000 35.068,0.000 36.329 M399.243 36.329 C 399.243 37.591,399.411 38.600,399.622 38.600 C 399.832 38.600,400.000 37.591,400.000 36.329 C 400.000 35.068,399.832 34.059,399.622 34.059 C 399.411 34.059,399.243 35.068,399.243 36.329 M118.448 38.148 C 118.448 38.525,120.368 40.473,124.845 44.641 C 125.762 45.495,126.679 46.137,126.883 46.069 C 127.303 45.929,126.639 45.198,125.081 44.087 C 124.497 43.671,122.766 42.071,121.234 40.533 C 119.702 38.994,118.448 37.921,118.448 38.148 M0.000 44.276 C 0.000 45.538,0.168 46.547,0.378 46.547 C 0.589 46.547,0.757 45.538,0.757 44.276 C 0.757 43.015,0.589 42.006,0.378 42.006 C 0.168 42.006,0.000 43.015,0.000 44.276 M399.243 44.276 C 399.243 45.538,399.411 46.547,399.622 46.547 C 399.832 46.547,400.000 45.538,400.000 44.276 C 400.000 43.015,399.832 42.006,399.622 42.006 C 399.411 42.006,399.243 43.015,399.243 44.276 M128.666 48.398 C 128.666 48.626,137.195 57.328,147.619 67.737 C 158.043 78.145,166.600 86.701,166.635 86.751 C 166.918 87.159,384.863 87.163,384.863 86.755 C 384.863 86.378,363.054 86.280,277.105 86.273 C 209.704 86.267,168.758 86.127,167.775 85.900 C 166.123 85.519,163.409 83.173,162.377 81.236 C 162.082 80.681,161.726 80.227,161.586 80.227 C 161.303 80.227,159.133 78.130,156.938 75.737 C 156.149 74.876,155.359 74.172,155.181 74.172 C 155.004 74.172,148.966 68.280,141.763 61.078 C 134.559 53.876,128.666 48.170,128.666 48.398 M0.000 52.602 C 0.000 53.863,0.168 54.872,0.378 54.872 C 0.589 54.872,0.757 53.863,0.757 52.602 C 0.757 51.340,0.589 50.331,0.378 50.331 C 0.168 50.331,0.000 51.340,0.000 52.602 M399.243 52.602 C 399.243 53.863,399.411 54.872,399.622 54.872 C 399.832 54.872,400.000 53.863,400.000 52.602 C 400.000 51.340,399.832 50.331,399.622 50.331 C 399.411 50.331,399.243 51.340,399.243 52.602 M0.000 60.549 C 0.000 61.810,0.168 62.819,0.378 62.819 C 0.589 62.819,0.757 61.810,0.757 60.549 C 0.757 59.287,0.589 58.278,0.378 58.278 C 0.168 58.278,0.000 59.287,0.000 60.549 M399.243 60.549 C 399.243 61.810,399.411 62.819,399.622 62.819 C 399.832 62.819,400.000 61.810,400.000 60.549 C 400.000 59.287,399.832 58.278,399.622 58.278 C 399.411 58.278,399.243 59.287,399.243 60.549 M0.000 68.874 C 0.000 70.136,0.168 71.145,0.378 71.145 C 0.589 71.145,0.757 70.136,0.757 68.874 C 0.757 67.613,0.589 66.604,0.378 66.604 C 0.168 66.604,0.000 67.613,0.000 68.874 M399.243 68.874 C 399.243 70.136,399.411 71.145,399.622 71.145 C 399.832 71.145,400.000 70.136,400.000 68.874 C 400.000 67.613,399.832 66.604,399.622 66.604 C 399.411 66.604,399.243 67.613,399.243 68.874 M0.000 77.010 C 0.000 78.398,0.165 79.470,0.378 79.470 C 0.592 79.470,0.757 78.398,0.757 77.010 C 0.757 75.623,0.592 74.551,0.378 74.551 C 0.165 74.551,0.000 75.623,0.000 77.010 M399.243 77.010 C 399.243 78.398,399.408 79.470,399.622 79.470 C 399.835 79.470,400.000 78.398,400.000 77.010 C 400.000 75.623,399.835 74.551,399.622 74.551 C 399.408 74.551,399.243 75.623,399.243 77.010 M0.000 85.147 C 0.000 86.408,0.168 87.417,0.378 87.417 C 0.589 87.417,0.757 86.408,0.757 85.147 C 0.757 83.885,0.589 82.876,0.378 82.876 C 0.168 82.876,0.000 83.885,0.000 85.147 M399.243 85.147 C 399.243 86.408,399.411 87.417,399.622 87.417 C 399.832 87.417,400.000 86.408,400.000 85.147 C 400.000 83.885,399.832 82.876,399.622 82.876 C 399.411 82.876,399.243 83.885,399.243 85.147 M0.000 93.472 C 0.000 94.734,0.168 95.743,0.378 95.743 C 0.589 95.743,0.757 94.734,0.757 93.472 C 0.757 92.211,0.589 91.202,0.378 91.202 C 0.168 91.202,0.000 92.211,0.000 93.472 M399.243 93.472 C 399.243 94.734,399.411 95.743,399.622 95.743 C 399.832 95.743,400.000 94.734,400.000 93.472 C 400.000 92.211,399.832 91.202,399.622 91.202 C 399.411 91.202,399.243 92.211,399.243 93.472 M0.000 101.419 C 0.000 102.681,0.168 103.690,0.378 103.690 C 0.589 103.690,0.757 102.681,0.757 101.419 C 0.757 100.158,0.589 99.149,0.378 99.149 C 0.168 99.149,0.000 100.158,0.000 101.419 M399.243 101.419 C 399.243 102.681,399.411 103.690,399.622 103.690 C 399.832 103.690,400.000 102.681,400.000 101.419 C 400.000 100.158,399.832 99.149,399.622 99.149 C 399.411 99.149,399.243 100.158,399.243 101.419 M0.000 109.745 C 0.000 111.006,0.168 112.015,0.378 112.015 C 0.589 112.015,0.757 111.006,0.757 109.745 C 0.757 108.483,0.589 107.474,0.378 107.474 C 0.168 107.474,0.000 108.483,0.000 109.745 M399.243 109.745 C 399.243 111.006,399.411 112.015,399.622 112.015 C 399.832 112.015,400.000 111.006,400.000 109.745 C 400.000 108.483,399.832 107.474,399.622 107.474 C 399.411 107.474,399.243 108.483,399.243 109.745 M0.000 117.692 C 0.000 118.953,0.168 119.962,0.378 119.962 C 0.589 119.962,0.757 118.953,0.757 117.692 C 0.757 116.430,0.589 115.421,0.378 115.421 C 0.168 115.421,0.000 116.430,0.000 117.692 M399.243 117.692 C 399.243 118.953,399.411 119.962,399.622 119.962 C 399.832 119.962,400.000 118.953,400.000 117.692 C 400.000 116.430,399.832 115.421,399.622 115.421 C 399.411 115.421,399.243 116.430,399.243 117.692 M0.000 126.017 C 0.000 127.278,0.168 128.288,0.378 128.288 C 0.589 128.288,0.757 127.278,0.757 126.017 C 0.757 124.756,0.589 123.746,0.378 123.746 C 0.168 123.746,0.000 124.756,0.000 126.017 M399.243 126.017 C 399.243 127.278,399.411 128.288,399.622 128.288 C 399.832 128.288,400.000 127.278,400.000 126.017 C 400.000 124.756,399.832 123.746,399.622 123.746 C 399.411 123.746,399.243 124.756,399.243 126.017 M0.000 134.153 C 0.000 135.541,0.165 136.613,0.378 136.613 C 0.592 136.613,0.757 135.541,0.757 134.153 C 0.757 132.766,0.592 131.693,0.378 131.693 C 0.165 131.693,0.000 132.766,0.000 134.153 M399.243 134.153 C 399.243 135.541,399.408 136.613,399.622 136.613 C 399.835 136.613,400.000 135.541,400.000 134.153 C 400.000 132.766,399.835 131.693,399.622 131.693 C 399.408 131.693,399.243 132.766,399.243 134.153 M153.453 136.119 C 152.204 136.416,149.565 137.011,147.588 137.443 C 145.610 137.874,143.311 138.528,142.479 138.895 C 141.646 139.262,139.858 140.025,138.505 140.591 C 133.204 142.809,125.358 147.320,113.697 154.856 C 111.627 156.193,108.657 158.027,107.096 158.931 C 105.535 159.834,102.469 161.715,100.284 163.110 C 98.098 164.505,93.091 167.286,89.157 169.288 C 85.223 171.291,81.689 173.214,81.304 173.562 C 80.493 174.296,80.200 193.839,80.993 194.329 C 81.531 194.662,94.433 188.256,98.581 185.596 C 100.454 184.395,105.886 181.046,110.652 178.154 C 115.418 175.261,120.271 172.248,121.437 171.457 C 123.540 170.032,129.789 166.374,134.153 164.013 C 156.441 151.959,175.212 155.797,205.298 178.561 C 231.024 198.027,238.215 202.149,249.288 203.781 C 262.280 205.695,273.868 202.853,284.768 195.077 C 288.240 192.600,292.296 189.536,294.797 187.502 C 296.358 186.231,298.231 184.780,298.959 184.276 C 300.302 183.347,305.948 178.229,315.232 169.524 C 318.042 166.890,320.937 164.211,321.665 163.572 L 322.990 162.410 323.103 152.671 C 323.165 147.314,323.079 142.796,322.912 142.629 C 322.425 142.141,319.320 144.295,315.922 147.476 C 314.189 149.098,311.325 151.614,309.555 153.067 C 307.786 154.520,304.465 157.337,302.176 159.327 C 278.928 179.536,269.357 184.208,254.154 182.768 C 246.198 182.014,233.358 176.771,228.271 172.198 C 227.916 171.879,227.200 171.397,226.679 171.128 C 225.511 170.523,218.923 165.832,215.230 162.976 C 196.661 148.612,181.645 139.474,173.834 137.786 C 162.842 135.411,158.080 135.021,153.453 136.119 M0.000 142.289 C 0.000 143.551,0.168 144.560,0.378 144.560 C 0.589 144.560,0.757 143.551,0.757 142.289 C 0.757 141.028,0.589 140.019,0.378 140.019 C 0.168 140.019,0.000 141.028,0.000 142.289 M399.243 142.289 C 399.243 143.551,399.411 144.560,399.622 144.560 C 399.832 144.560,400.000 143.551,400.000 142.289 C 400.000 141.028,399.832 140.019,399.622 140.019 C 399.411 140.019,399.243 141.028,399.243 142.289 M0.000 150.615 C 0.000 151.876,0.168 152.886,0.378 152.886 C 0.589 152.886,0.757 151.876,0.757 150.615 C 0.757 149.354,0.589 148.344,0.378 148.344 C 0.168 148.344,0.000 149.354,0.000 150.615 M399.243 150.615 C 399.243 151.876,399.411 152.886,399.622 152.886 C 399.832 152.886,400.000 151.876,400.000 150.615 C 400.000 149.354,399.832 148.344,399.622 148.344 C 399.411 148.344,399.243 149.354,399.243 150.615 M0.000 158.562 C 0.000 159.823,0.168 160.833,0.378 160.833 C 0.589 160.833,0.757 159.823,0.757 158.562 C 0.757 157.301,0.589 156.291,0.378 156.291 C 0.168 156.291,0.000 157.301,0.000 158.562 M399.243 158.562 C 399.243 159.823,399.411 160.833,399.622 160.833 C 399.832 160.833,400.000 159.823,400.000 158.562 C 400.000 157.301,399.832 156.291,399.622 156.291 C 399.411 156.291,399.243 157.301,399.243 158.562 M0.000 166.887 C 0.000 168.149,0.168 169.158,0.378 169.158 C 0.589 169.158,0.757 168.149,0.757 166.887 C 0.757 165.626,0.589 164.617,0.378 164.617 C 0.168 164.617,0.000 165.626,0.000 166.887 M399.243 166.887 C 399.243 168.149,399.411 169.158,399.622 169.158 C 399.832 169.158,400.000 168.149,400.000 166.887 C 400.000 165.626,399.832 164.617,399.622 164.617 C 399.411 164.617,399.243 165.626,399.243 166.887 M0.000 174.834 C 0.000 176.096,0.168 177.105,0.378 177.105 C 0.589 177.105,0.757 176.096,0.757 174.834 C 0.757 173.573,0.589 172.564,0.378 172.564 C 0.168 172.564,0.000 173.573,0.000 174.834 M399.243 174.834 C 399.243 176.096,399.411 177.105,399.622 177.105 C 399.832 177.105,400.000 176.096,400.000 174.834 C 400.000 173.573,399.832 172.564,399.622 172.564 C 399.411 172.564,399.243 173.573,399.243 174.834 M0.000 183.160 C 0.000 184.421,0.168 185.430,0.378 185.430 C 0.589 185.430,0.757 184.421,0.757 183.160 C 0.757 181.898,0.589 180.889,0.378 180.889 C 0.168 180.889,0.000 181.898,0.000 183.160 M399.243 183.160 C 399.243 184.421,399.411 185.430,399.622 185.430 C 399.832 185.430,400.000 184.421,400.000 183.160 C 400.000 181.898,399.832 180.889,399.622 180.889 C 399.411 180.889,399.243 181.898,399.243 183.160 M0.000 191.107 C 0.000 192.368,0.168 193.377,0.378 193.377 C 0.589 193.377,0.757 192.368,0.757 191.107 C 0.757 189.845,0.589 188.836,0.378 188.836 C 0.168 188.836,0.000 189.845,0.000 191.107 M399.243 191.107 C 399.243 192.368,399.411 193.377,399.622 193.377 C 399.832 193.377,400.000 192.368,400.000 191.107 C 400.000 189.845,399.832 188.836,399.622 188.836 C 399.411 188.836,399.243 189.845,399.243 191.107 M149.858 194.150 C 144.006 194.852,132.746 200.078,120.719 207.671 C 117.909 209.446,111.268 213.639,105.960 216.989 C 100.051 220.720,93.376 224.552,88.742 226.876 L 81.173 230.672 80.939 233.500 C 80.596 237.641,80.558 251.278,80.889 251.274 C 82.688 251.256,93.858 246.094,97.256 243.711 C 97.777 243.346,102.715 240.274,108.231 236.884 C 113.746 233.495,119.451 229.929,120.908 228.960 C 124.247 226.740,135.487 220.527,137.748 219.651 C 138.685 219.288,139.622 218.870,139.830 218.723 C 140.212 218.452,144.348 217.084,148.534 215.844 C 151.874 214.855,165.105 214.851,169.158 215.839 C 180.027 218.489,188.865 223.705,213.674 242.115 C 255.030 272.803,270.051 270.125,319.079 223.324 C 323.285 219.309,323.179 219.681,323.179 208.953 C 323.179 203.045,323.040 199.770,322.784 199.611 C 322.278 199.299,320.663 200.542,315.253 205.410 C 312.848 207.573,309.858 210.125,308.609 211.079 C 307.360 212.034,304.891 214.192,303.122 215.875 C 301.353 217.557,297.947 220.552,295.553 222.529 C 283.041 232.864,276.144 237.003,267.739 239.222 C 265.241 239.881,262.352 240.650,261.318 240.929 C 258.205 241.771,258.457 241.811,246.736 238.633 C 239.009 236.538,229.170 230.869,216.139 221.003 C 189.894 201.131,179.523 195.255,168.748 194.149 C 164.416 193.705,153.568 193.705,149.858 194.150 M0.000 199.432 C 0.000 200.694,0.168 201.703,0.378 201.703 C 0.589 201.703,0.757 200.694,0.757 199.432 C 0.757 198.171,0.589 197.162,0.378 197.162 C 0.168 197.162,0.000 198.171,0.000 199.432 M399.243 199.432 C 399.243 200.694,399.411 201.703,399.622 201.703 C 399.832 201.703,400.000 200.694,400.000 199.432 C 400.000 198.171,399.832 197.162,399.622 197.162 C 399.411 197.162,399.243 198.171,399.243 199.432 M0.000 207.569 C 0.000 208.956,0.165 210.028,0.378 210.028 C 0.592 210.028,0.757 208.956,0.757 207.569 C 0.757 206.181,0.592 205.109,0.378 205.109 C 0.165 205.109,0.000 206.181,0.000 207.569 M399.243 207.569 C 399.243 208.956,399.408 210.028,399.622 210.028 C 399.835 210.028,400.000 208.956,400.000 207.569 C 400.000 206.181,399.835 205.109,399.622 205.109 C 399.408 205.109,399.243 206.181,399.243 207.569 M0.000 215.705 C 0.000 216.966,0.168 217.975,0.378 217.975 C 0.589 217.975,0.757 216.966,0.757 215.705 C 0.757 214.443,0.589 213.434,0.378 213.434 C 0.168 213.434,0.000 214.443,0.000 215.705 M399.243 215.705 C 399.243 216.966,399.411 217.975,399.622 217.975 C 399.832 217.975,400.000 216.966,400.000 215.705 C 400.000 214.443,399.832 213.434,399.622 213.434 C 399.411 213.434,399.243 214.443,399.243 215.705 M0.000 224.030 C 0.000 225.292,0.168 226.301,0.378 226.301 C 0.589 226.301,0.757 225.292,0.757 224.030 C 0.757 222.769,0.589 221.760,0.378 221.760 C 0.168 221.760,0.000 222.769,0.000 224.030 M399.243 224.030 C 399.243 225.292,399.411 226.301,399.622 226.301 C 399.832 226.301,400.000 225.292,400.000 224.030 C 400.000 222.769,399.832 221.760,399.622 221.760 C 399.411 221.760,399.243 222.769,399.243 224.030 M0.000 231.977 C 0.000 233.239,0.168 234.248,0.378 234.248 C 0.589 234.248,0.757 233.239,0.757 231.977 C 0.757 230.716,0.589 229.707,0.378 229.707 C 0.168 229.707,0.000 230.716,0.000 231.977 M399.243 231.977 C 399.243 233.239,399.411 234.248,399.622 234.248 C 399.832 234.248,400.000 233.239,400.000 231.977 C 400.000 230.716,399.832 229.707,399.622 229.707 C 399.411 229.707,399.243 230.716,399.243 231.977 M0.000 240.303 C 0.000 241.564,0.168 242.573,0.378 242.573 C 0.589 242.573,0.757 241.564,0.757 240.303 C 0.757 239.041,0.589 238.032,0.378 238.032 C 0.168 238.032,0.000 239.041,0.000 240.303 M399.243 240.303 C 399.243 241.564,399.411 242.573,399.622 242.573 C 399.832 242.573,400.000 241.564,400.000 240.303 C 400.000 239.041,399.832 238.032,399.622 238.032 C 399.411 238.032,399.243 239.041,399.243 240.303 M0.000 248.250 C 0.000 249.511,0.168 250.520,0.378 250.520 C 0.589 250.520,0.757 249.511,0.757 248.250 C 0.757 246.988,0.589 245.979,0.378 245.979 C 0.168 245.979,0.000 246.988,0.000 248.250 M399.243 248.250 C 399.243 249.511,399.411 250.520,399.622 250.520 C 399.832 250.520,400.000 249.511,400.000 248.250 C 400.000 246.988,399.832 245.979,399.622 245.979 C 399.411 245.979,399.243 246.988,399.243 248.250 M152.696 251.671 C 148.078 251.955,142.315 253.641,135.196 256.789 C 133.136 257.700,120.572 265.246,112.015 270.711 C 99.053 278.990,88.021 285.364,83.993 286.902 C 81.371 287.903,81.048 288.137,80.839 289.184 C 80.530 290.727,80.540 301.851,80.853 305.556 L 81.100 308.482 82.461 308.249 C 85.764 307.682,97.248 301.289,114.096 290.638 C 126.425 282.845,128.219 281.776,133.048 279.348 C 145.365 273.156,150.564 271.826,161.020 272.196 C 174.872 272.686,184.335 277.547,212.550 298.671 C 233.670 314.482,246.503 320.355,258.325 319.616 C 266.359 319.114,278.098 314.737,285.147 309.616 C 293.157 303.796,299.233 298.728,308.798 289.887 C 311.400 287.482,315.546 283.740,318.012 281.571 C 323.433 276.801,323.185 277.409,323.151 268.944 C 323.097 255.562,323.017 255.488,315.797 262.234 C 308.880 268.696,289.317 285.277,284.701 288.589 C 272.590 297.278,259.523 300.675,249.548 297.729 C 236.296 293.815,232.276 291.454,208.515 273.625 C 187.776 258.064,176.681 252.439,165.184 251.655 C 159.422 251.262,159.352 251.262,152.696 251.671 M0.000 256.575 C 0.000 257.837,0.168 258.846,0.378 258.846 C 0.589 258.846,0.757 257.837,0.757 256.575 C 0.757 255.314,0.589 254.305,0.378 254.305 C 0.168 254.305,0.000 255.314,0.000 256.575 M399.243 256.575 C 399.243 257.837,399.411 258.846,399.622 258.846 C 399.832 258.846,400.000 257.837,400.000 256.575 C 400.000 255.314,399.832 254.305,399.622 254.305 C 399.411 254.305,399.243 255.314,399.243 256.575 M0.000 264.711 C 0.000 266.099,0.165 267.171,0.378 267.171 C 0.592 267.171,0.757 266.099,0.757 264.711 C 0.757 263.324,0.592 262.252,0.378 262.252 C 0.165 262.252,0.000 263.324,0.000 264.711 M399.243 264.711 C 399.243 266.099,399.408 267.171,399.622 267.171 C 399.835 267.171,400.000 266.099,400.000 264.711 C 400.000 263.324,399.835 262.252,399.622 262.252 C 399.408 262.252,399.243 263.324,399.243 264.711 M0.000 272.848 C 0.000 274.109,0.168 275.118,0.378 275.118 C 0.589 275.118,0.757 274.109,0.757 272.848 C 0.757 271.586,0.589 270.577,0.378 270.577 C 0.168 270.577,0.000 271.586,0.000 272.848 M399.243 272.848 C 399.243 274.109,399.411 275.118,399.622 275.118 C 399.832 275.118,400.000 274.109,400.000 272.848 C 400.000 271.586,399.832 270.577,399.622 270.577 C 399.411 270.577,399.243 271.586,399.243 272.848 M0.000 281.173 C 0.000 282.435,0.168 283.444,0.378 283.444 C 0.589 283.444,0.757 282.435,0.757 281.173 C 0.757 279.912,0.589 278.903,0.378 278.903 C 0.168 278.903,0.000 279.912,0.000 281.173 M399.243 281.173 C 399.243 282.435,399.411 283.444,399.622 283.444 C 399.832 283.444,400.000 282.435,400.000 281.173 C 400.000 279.912,399.832 278.903,399.622 278.903 C 399.411 278.903,399.243 279.912,399.243 281.173 M0.000 289.120 C 0.000 290.382,0.168 291.391,0.378 291.391 C 0.589 291.391,0.757 290.382,0.757 289.120 C 0.757 287.859,0.589 286.850,0.378 286.850 C 0.168 286.850,0.000 287.859,0.000 289.120 M399.243 289.120 C 399.243 290.382,399.411 291.391,399.622 291.391 C 399.832 291.391,400.000 290.382,400.000 289.120 C 400.000 287.859,399.832 286.850,399.622 286.850 C 399.411 286.850,399.243 287.859,399.243 289.120 M0.000 297.446 C 0.000 298.707,0.168 299.716,0.378 299.716 C 0.589 299.716,0.757 298.707,0.757 297.446 C 0.757 296.184,0.589 295.175,0.378 295.175 C 0.168 295.175,0.000 296.184,0.000 297.446 M399.243 297.446 C 399.243 298.707,399.411 299.716,399.622 299.716 C 399.832 299.716,400.000 298.707,400.000 297.446 C 400.000 296.184,399.832 295.175,399.622 295.175 C 399.411 295.175,399.243 296.184,399.243 297.446 M0.000 305.393 C 0.000 306.654,0.168 307.663,0.378 307.663 C 0.589 307.663,0.757 306.654,0.757 305.393 C 0.757 304.131,0.589 303.122,0.378 303.122 C 0.168 303.122,0.000 304.131,0.000 305.393 M399.243 305.393 C 399.243 306.654,399.411 307.663,399.622 307.663 C 399.832 307.663,400.000 306.654,400.000 305.393 C 400.000 304.131,399.832 303.122,399.622 303.122 C 399.411 303.122,399.243 304.131,399.243 305.393 M0.000 313.718 C 0.000 314.980,0.168 315.989,0.378 315.989 C 0.589 315.989,0.757 314.980,0.757 313.718 C 0.757 312.457,0.589 311.447,0.378 311.447 C 0.168 311.447,0.000 312.457,0.000 313.718 M399.243 313.718 C 399.243 314.980,399.411 315.989,399.622 315.989 C 399.832 315.989,400.000 314.980,400.000 313.718 C 400.000 312.457,399.832 311.447,399.622 311.447 C 399.411 311.447,399.243 312.457,399.243 313.718 M0.000 321.665 C 0.000 322.927,0.168 323.936,0.378 323.936 C 0.589 323.936,0.757 322.927,0.757 321.665 C 0.757 320.404,0.589 319.395,0.378 319.395 C 0.168 319.395,0.000 320.404,0.000 321.665 M399.243 321.665 C 399.243 322.927,399.411 323.936,399.622 323.936 C 399.832 323.936,400.000 322.927,400.000 321.665 C 400.000 320.404,399.832 319.395,399.622 319.395 C 399.411 319.395,399.243 320.404,399.243 321.665 M0.000 329.991 C 0.000 331.252,0.168 332.261,0.378 332.261 C 0.589 332.261,0.757 331.252,0.757 329.991 C 0.757 328.729,0.589 327.720,0.378 327.720 C 0.168 327.720,0.000 328.729,0.000 329.991 M399.243 329.991 C 399.243 331.252,399.411 332.261,399.622 332.261 C 399.832 332.261,400.000 331.252,400.000 329.991 C 400.000 328.729,399.832 327.720,399.622 327.720 C 399.411 327.720,399.243 328.729,399.243 329.991 M0.000 338.127 C 0.000 339.514,0.165 340.587,0.378 340.587 C 0.592 340.587,0.757 339.514,0.757 338.127 C 0.757 336.739,0.592 335.667,0.378 335.667 C 0.165 335.667,0.000 336.739,0.000 338.127 M399.243 338.127 C 399.243 339.514,399.408 340.587,399.622 340.587 C 399.835 340.587,400.000 339.514,400.000 338.127 C 400.000 336.739,399.835 335.667,399.622 335.667 C 399.408 335.667,399.243 336.739,399.243 338.127 M0.000 346.263 C 0.000 347.524,0.168 348.534,0.378 348.534 C 0.589 348.534,0.757 347.524,0.757 346.263 C 0.757 345.002,0.589 343.992,0.378 343.992 C 0.168 343.992,0.000 345.002,0.000 346.263 M399.243 346.263 C 399.243 347.524,399.411 348.534,399.622 348.534 C 399.832 348.534,400.000 347.524,400.000 346.263 C 400.000 345.002,399.832 343.992,399.622 343.992 C 399.411 343.992,399.243 345.002,399.243 346.263 M0.000 354.588 C 0.000 355.850,0.168 356.859,0.378 356.859 C 0.589 356.859,0.757 355.850,0.757 354.588 C 0.757 353.327,0.589 352.318,0.378 352.318 C 0.168 352.318,0.000 353.327,0.000 354.588 M399.243 354.588 C 399.243 355.850,399.411 356.859,399.622 356.859 C 399.832 356.859,400.000 355.850,400.000 354.588 C 400.000 353.327,399.832 352.318,399.622 352.318 C 399.411 352.318,399.243 353.327,399.243 354.588 M20.057 355.724 C 20.057 355.976,80.858 356.102,201.703 356.102 C 322.548 356.102,383.349 355.976,383.349 355.724 C 383.349 355.472,322.548 355.345,201.703 355.345 C 80.858 355.345,20.057 355.472,20.057 355.724 M0.000 362.535 C 0.000 363.797,0.168 364.806,0.378 364.806 C 0.589 364.806,0.757 363.797,0.757 362.535 C 0.757 361.274,0.589 360.265,0.378 360.265 C 0.168 360.265,0.000 361.274,0.000 362.535 M399.243 362.535 C 399.243 363.797,399.411 364.806,399.622 364.806 C 399.832 364.806,400.000 363.797,400.000 362.535 C 400.000 361.274,399.832 360.265,399.622 360.265 C 399.411 360.265,399.243 361.274,399.243 362.535 M0.000 370.861 C 0.000 372.122,0.168 373.132,0.378 373.132 C 0.589 373.132,0.757 372.122,0.757 370.861 C 0.757 369.599,0.589 368.590,0.378 368.590 C 0.168 368.590,0.000 369.599,0.000 370.861 M399.243 370.861 C 399.243 372.122,399.411 373.132,399.622 373.132 C 399.832 373.132,400.000 372.122,400.000 370.861 C 400.000 369.599,399.832 368.590,399.622 368.590 C 399.411 368.590,399.243 369.599,399.243 370.861 M0.000 377.483 C 0.000 378.004,0.170 378.430,0.378 378.430 C 0.587 378.430,0.757 378.004,0.757 377.483 C 0.757 376.963,0.587 376.537,0.378 376.537 C 0.170 376.537,0.000 376.963,0.000 377.483 M399.243 377.483 C 399.243 378.004,399.413 378.430,399.622 378.430 C 399.830 378.430,400.000 378.004,400.000 377.483 C 400.000 376.963,399.830 376.537,399.622 376.537 C 399.413 376.537,399.243 376.963,399.243 377.483 " stroke="none" fill="#fafaf9" fill-rule="evenodd"></path><path id="path1" d="M19.300 194.797 L 19.300 355.535 201.777 355.441 C 302.140 355.390,384.392 355.211,384.559 355.043 C 384.727 354.876,384.821 294.549,384.769 220.983 L 384.674 87.228 275.686 87.035 C 215.743 86.929,166.671 86.801,166.637 86.751 C 166.603 86.701,158.125 78.225,147.796 67.915 C 137.467 57.605,128.852 48.739,128.652 48.214 C 128.452 47.688,128.118 47.364,127.910 47.492 C 127.701 47.621,127.531 47.456,127.531 47.125 C 127.531 46.794,127.233 46.412,126.868 46.276 C 126.118 45.996,125.025 44.625,125.178 44.154 C 125.233 43.982,125.103 43.950,124.888 44.083 C 124.405 44.381,123.303 43.343,123.670 42.936 C 123.816 42.774,123.737 42.755,123.495 42.893 C 123.038 43.155,118.448 38.848,118.448 38.157 C 118.448 37.625,116.462 35.572,115.946 35.572 C 115.714 35.572,115.090 35.232,114.561 34.816 C 113.610 34.068,113.026 34.059,66.449 34.059 L 19.300 34.059 19.300 194.797 M166.131 136.264 C 175.820 138.041,176.921 138.378,182.896 141.389 C 191.365 145.657,202.147 152.855,215.230 162.976 C 218.923 165.832,225.511 170.523,226.679 171.128 C 227.200 171.397,227.916 171.879,228.271 172.198 C 233.358 176.771,246.198 182.014,254.154 182.768 C 269.357 184.208,278.928 179.536,302.176 159.327 C 304.465 157.337,307.786 154.520,309.555 153.067 C 311.325 151.614,314.189 149.098,315.922 147.476 C 319.320 144.295,322.425 142.141,322.912 142.629 C 323.079 142.796,323.165 147.314,323.103 152.671 L 322.990 162.410 321.665 163.572 C 320.937 164.211,318.042 166.890,315.232 169.524 C 305.948 178.229,300.302 183.347,298.959 184.276 C 298.231 184.780,296.358 186.231,294.797 187.502 C 292.296 189.536,288.240 192.600,284.768 195.077 C 273.868 202.853,262.280 205.695,249.288 203.781 C 240.044 202.418,233.630 199.239,219.300 188.916 C 213.717 184.894,211.546 183.289,205.298 178.561 C 175.212 155.797,156.441 151.959,134.153 164.013 C 129.789 166.374,123.540 170.032,121.437 171.457 C 120.271 172.248,115.418 175.261,110.652 178.154 C 105.886 181.046,100.454 184.395,98.581 185.596 C 94.433 188.256,81.531 194.662,80.993 194.329 C 80.200 193.839,80.493 174.296,81.304 173.562 C 81.689 173.214,85.223 171.291,89.157 169.288 C 93.091 167.286,98.098 164.505,100.284 163.110 C 102.469 161.715,105.535 159.834,107.096 158.931 C 108.657 158.027,111.627 156.193,113.697 154.856 C 125.358 147.320,133.204 142.809,138.505 140.591 C 139.858 140.025,141.646 139.262,142.479 138.895 C 143.311 138.528,145.610 137.874,147.588 137.443 C 149.565 137.011,152.204 136.416,153.453 136.119 C 156.844 135.314,161.228 135.364,166.131 136.264 M168.748 194.149 C 179.523 195.255,189.894 201.131,216.139 221.003 C 229.170 230.869,239.009 236.538,246.736 238.633 C 258.457 241.811,258.205 241.771,261.318 240.929 C 262.352 240.650,265.241 239.881,267.739 239.222 C 276.144 237.003,283.041 232.864,295.553 222.529 C 297.947 220.552,301.353 217.557,303.122 215.875 C 304.891 214.192,307.360 212.034,308.609 211.079 C 309.858 210.125,312.848 207.573,315.253 205.410 C 320.663 200.542,322.278 199.299,322.784 199.611 C 323.480 200.042,323.304 217.786,322.589 219.293 C 321.923 220.696,319.505 223.063,308.410 233.171 C 274.855 263.741,258.431 268.634,233.551 255.472 C 228.731 252.922,223.507 249.411,213.674 242.115 C 188.865 223.705,180.027 218.489,169.158 215.839 C 165.105 214.851,151.874 214.855,148.534 215.844 C 144.348 217.084,140.212 218.452,139.830 218.723 C 139.622 218.870,138.685 219.288,137.748 219.651 C 135.487 220.527,124.247 226.740,120.908 228.960 C 119.451 229.929,113.746 233.495,108.231 236.884 C 102.715 240.274,97.777 243.346,97.256 243.711 C 93.858 246.094,82.688 251.256,80.889 251.274 C 80.558 251.278,80.596 237.641,80.939 233.500 L 81.173 230.672 88.742 226.876 C 93.376 224.552,100.051 220.720,105.960 216.989 C 111.268 213.639,117.909 209.446,120.719 207.671 C 132.746 200.078,144.006 194.852,149.858 194.150 C 153.568 193.705,164.416 193.705,168.748 194.149 M165.184 251.655 C 176.681 252.439,187.776 258.064,208.515 273.625 C 232.276 291.454,236.296 293.815,249.548 297.729 C 259.523 300.675,272.590 297.278,284.701 288.589 C 289.317 285.277,308.880 268.696,315.797 262.234 C 323.017 255.488,323.097 255.562,323.151 268.944 C 323.185 277.409,323.433 276.801,318.012 281.571 C 315.546 283.740,311.400 287.482,308.798 289.887 C 299.233 298.728,293.157 303.796,285.147 309.616 C 278.098 314.737,266.359 319.114,258.325 319.616 C 246.503 320.355,233.670 314.482,212.550 298.671 C 184.335 277.547,174.872 272.686,161.020 272.196 C 150.564 271.826,145.365 273.156,133.048 279.348 C 128.219 281.776,126.425 282.845,114.096 290.638 C 97.248 301.289,85.764 307.682,82.461 308.249 L 81.100 308.482 80.853 305.556 C 80.540 301.851,80.530 290.727,80.839 289.184 C 81.048 288.137,81.371 287.903,83.993 286.902 C 88.021 285.364,99.053 278.990,112.015 270.711 C 120.572 265.246,133.136 257.700,135.196 256.789 C 142.315 253.641,148.078 251.955,152.696 251.671 C 159.352 251.262,159.422 251.262,165.184 251.655 " stroke="none" fill="#fcc424" fill-rule="evenodd"></path></g></svg>